<?xml version="1.0"?>
<svg xmlns="http://www.w3.org/2000/svg" height="512px" viewBox="0 0 512 512" width="512px" class=""><g><path d="m377 30h-46v-15c0-8.285156-6.714844-15-15-15s-15 6.714844-15 15v15h-30v-15c0-8.285156-6.714844-15-15-15s-15 6.714844-15 15v15h-30v-15c0-8.285156-6.714844-15-15-15s-15 6.714844-15 15v15h-30v-15c0-8.285156-6.714844-15-15-15s-15 6.714844-15 15v15h-30v-15c0-8.285156-6.714844-15-15-15s-15 6.714844-15 15v15h-46c-8.285156 0-15 6.714844-15 15v452c0 8.285156 6.714844 15 15 15h362c8.285156 0 15-6.714844 15-15v-452c0-8.285156-6.714844-15-15-15zm-15 452h-332v-422h31v15c0 8.285156 6.714844 15 15 15s15-6.714844 15-15v-15h30v15c0 8.285156 6.714844 15 15 15s15-6.714844 15-15v-15h30v15c0 8.285156 6.714844 15 15 15s15-6.714844 15-15v-15h30v15c0 8.285156 6.714844 15 15 15s15-6.714844 15-15v-15h30v15c0 8.285156 6.714844 15 15 15s15-6.714844 15-15v-15h31zm0 0" data-original="#000000" class="active-path" data-old_color="#000000" fill="#FFFFFF"/><path d="m512 407v-362c0-8.285156-6.714844-15-15-15h-60c-8.285156 0-15 6.714844-15 15v362c0 1.441406.269531 3.246094.769531 4.742188l30 90c2.042969 6.125 7.773438 10.257812 14.230469 10.257812s12.1875-4.132812 14.230469-10.257812l30-90c.457031-1.363282.769531-3.175782.769531-4.742188zm-60-287h30v272h-30zm30-60v30h-30v-30zm-24.1875 362h18.375l-9.1875 27.566406zm0 0" data-original="#000000" class="active-path" data-old_color="#000000" fill="#FFFFFF"/><path d="m285.945312 224.050781c-1.5625-48.265625-41.308593-87.050781-89.945312-87.050781s-88.382812 38.785156-89.945312 87.050781c-26.910157 15.578125-45.054688 44.683594-45.054688 77.949219 0 49.625 40.375 90 90 90 16.382812 0 31.753906-4.402344 45-12.082031 13.246094 7.679687 28.617188 12.082031 45 12.082031 49.625 0 90-40.375 90-90 0-33.265625-18.144531-62.371094-45.054688-77.949219zm-50.148437 47.796875c-3.445313-9.664062-8.496094-18.566406-14.835937-26.394531 6.269531-2.226563 13.011718-3.453125 20.039062-3.453125 4.363281 0 8.613281.480469 12.710938 1.367188-3.164063 11.148437-9.472657 20.984374-17.914063 28.480468zm-39.796875 69.773438c-6.359375-7.214844-11.011719-15.960938-13.332031-25.609375 4.351562.648437 8.804687.988281 13.332031.988281s8.980469-.339844 13.332031-.988281c-2.320312 9.648437-6.972656 18.394531-13.332031 25.609375zm-57.710938-98.253906c4.097657-.886719 8.347657-1.367188 12.710938-1.367188 7.027344 0 13.769531 1.226562 20.039062 3.453125-6.339843 7.824219-11.390624 16.730469-14.835937 26.394531-8.441406-7.496094-14.75-17.332031-17.914063-28.480468zm57.710938 43.632812c-4.363281 0-8.613281-.480469-12.710938-1.367188 2.476563-8.71875 6.871094-16.632812 12.710938-23.253906 5.839844 6.621094 10.234375 14.535156 12.710938 23.253906-4.097657.886719-8.347657 1.367188-12.710938 1.367188zm0-120c28.257812 0 52.003906 19.644531 58.332031 45.988281-4.351562-.648437-8.804687-.988281-13.332031-.988281-16.382812 0-31.753906 4.402344-45 12.082031-13.246094-7.679687-28.617188-12.082031-45-12.082031-4.527344 0-8.980469.339844-13.332031.988281 6.328125-26.34375 30.074219-45.988281 58.332031-45.988281zm-105 135c0-17.824219 7.820312-33.847656 20.203125-44.847656 7.21875 20.246094 21.492187 37.171875 39.851563 47.796875.65625 20.261719 8.039062 38.847656 19.984374 53.597656-6.269531 2.226563-13.011718 3.453125-20.039062 3.453125-33.085938 0-60-26.914062-60-60zm150 60c-7.027344 0-13.769531-1.226562-20.039062-3.453125 11.945312-14.75 19.328124-33.335937 19.984374-53.597656 18.359376-10.625 32.632813-27.550781 39.851563-47.796875 12.382813 11 20.203125 27.023437 20.203125 44.847656 0 33.085938-26.914062 60-60 60zm0 0" data-original="#000000" class="active-path" data-old_color="#000000" fill="#FFFFFF"/><path d="m256 422h-120c-8.285156 0-15 6.714844-15 15s6.714844 15 15 15h120c8.285156 0 15-6.714844 15-15s-6.714844-15-15-15zm0 0" data-original="#000000" class="active-path" data-old_color="#000000" fill="#FFFFFF"/></g> </svg>
