<?xml version="1.0"?>
<svg xmlns="http://www.w3.org/2000/svg" height="512px" viewBox="0 -31 511.99756 511" width="512px"><g><path d="m1.980469 15.011719c-2.5 4.371093-2.640625 9.710937-.371094 14.207031l48.941406 96.960938c2.480469 4.921874 7.460938 8.082031 12.96875 8.238281.140625.003906.28125.003906.421875.003906 5.347656 0 10.304688-2.851563 12.992188-7.5l20.5625-35.613281 23.503906 13.570312v128.121094c0 5.417969 2.921875 10.417969 7.644531 13.074219l112.355469 63.199219v21.226562h-45c-5.53125 0-10.617188 3.042969-13.226562 7.921875-2.609376 4.875-2.324219 10.796875.746093 15.398437l60 90c2.78125 4.171876 7.464844 6.679688 12.480469 6.679688s9.699219-2.507812 12.480469-6.679688l60-90c3.066406-4.605468 3.355469-10.523437.746093-15.398437-2.613281-4.878906-7.695312-7.921875-13.226562-7.921875h-45v-21.191406l113.308594-63.210938c4.746094-2.648437 7.691406-7.660156 7.691406-13.097656v-128.25l23.484375-13.476562 20.582031 35.648437c2.683594 4.652344 7.640625 7.5 12.988282 7.5.160156 0 .320312 0 .484374-.007813 5.527344-.175781 10.511719-3.382812 12.960938-8.34375l47.945312-96.960937c2.222657-4.496094 2.050782-9.804687-.457031-14.148437-2.507812-4.34375-7.019531-7.144532-12.027343-7.46875l-107.941407-6.960938c-5.523437-.359375-10.789062 2.355469-13.707031 7.054688-2.917969 4.699218-3.015625 10.625-.246094 15.414062l24.417969 42.292969-25.300781 14.519531-111.875-62.414062c-4.5625-2.542969-10.113282-2.53125-14.664063.027343l-110.984375 62.429688-25.167968-14.527344 24.441406-42.328125c2.761718-4.789062 2.667968-10.710938-.246094-15.410156-2.917969-4.699219-8.1875-7.414063-13.703125-7.058594l-108.941406 6.960938c-5.03125.320312-9.558594 3.144531-12.0625 7.519531zm254.019531 393.445312-31.972656-47.957031h63.945312zm217.582031-372.476562-25.546875 51.667969-14.03125-24.296876v-.003906l-17.941406-31.078125zm-322.582031 188.246093v-102.027343l90 51.960937v100.691406zm211-.035156-91 50.765625v-100.773437l91-52.21875zm-105.96875-176.5 88.796875 49.539063-88.804687 50.960937-88.167969-50.902344zm-159.082031-15.4375-17.933594 31.0625s-14.1875 24.570313-14.1875 24.570313l-26.203125-51.90625zm0 0" data-original="#000000" class="active-path" data-old_color="#000000" fill="#FFFFFF"/></g> </svg>
