<?xml version="1.0"?>
<svg xmlns="http://www.w3.org/2000/svg" height="512px" viewBox="0 0 512.00002 512" width="512px" class=""><g><path d="m154.054688 138.949219c-8.347657 0-15.105469 6.757812-15.105469 15.105469v203.890624c0 8.347657 6.757812 15.105469 15.105469 15.105469h203.890624c8.347657 0 15.105469-6.757812 15.105469-15.105469v-203.890624c0-8.347657-6.757812-15.105469-15.105469-15.105469zm133.148437 101.949219h-16.101563v-18.761719h71.742188v57.023437h-40.539062v-23.160156c0-8.335938-6.765626-15.101562-15.101563-15.101562zm55.640625-48.964844h-71.742188v-22.777344h71.742188zm-101.945312-22.777344v71.742188h-71.742188v-71.742188zm-71.742188 101.945312h102.945312v71.742188h-102.945312zm133.148438 71.742188v-33.480469h40.539062v33.480469zm0 0" data-original="#000000" class="active-path" data-old_color="#000000" fill="#FFFFFF"/><path d="m496.898438 261.269531c8.339843 0 15.101562-6.761719 15.101562-15.105469 0-8.339843-6.761719-15.101562-15.101562-15.101562h-63.96875v-60.976562h63.96875c8.339843 0 15.101562-6.761719 15.101562-15.101563 0-8.34375-6.761719-15.105469-15.101562-15.105469h-63.96875v-31.992187c0-15.886719-12.929688-28.816407-28.816407-28.816407h-41.828125v-63.96875c0-8.339843-6.761718-15.101562-15.101562-15.101562-8.34375 0-15.105469 6.761719-15.105469 15.101562v63.96875h-60.976563v-63.96875c0-8.339843-6.761718-15.101562-15.101562-15.101562s-15.101562 6.761719-15.101562 15.101562v63.96875h-60.976563v-63.96875c0-8.339843-6.761719-15.101562-15.105469-15.101562-8.339844 0-15.101562 6.761719-15.101562 15.101562v63.96875h-41.828125c-15.886719 0-28.816407 12.929688-28.816407 28.816407v31.992187h-63.96875c-8.339843 0-15.101562 6.761719-15.101562 15.105469 0 8.339844 6.761719 15.101563 15.101562 15.101563h63.96875v60.976562h-63.96875c-8.339843 0-15.101562 6.761719-15.101562 15.101562 0 8.34375 6.761719 15.105469 15.101562 15.105469h63.96875v60.976563h-63.96875c-8.339843 0-15.101562 6.761718-15.101562 15.101562s6.761719 15.105469 15.101562 15.105469h63.96875v51.660156c0 15.886719 12.929688 28.816407 28.816407 28.816407h41.828125v63.964843c0 8.34375 6.761718 15.105469 15.101562 15.105469 8.34375 0 15.105469-6.761719 15.105469-15.105469v-63.964843h60.976563v63.964843c0 8.34375 6.761718 15.105469 15.101562 15.105469s15.101562-6.761719 15.101562-15.105469v-63.964843h60.976563v63.964843c0 8.34375 6.761719 15.105469 15.105469 15.105469 8.339844 0 15.101562-6.761719 15.101562-15.105469v-63.964843h41.828125c15.886719 0 28.816407-12.929688 28.816407-28.816407v-51.660156h63.96875c8.339843 0 15.101562-6.765625 15.101562-15.105469s-6.761719-15.101562-15.101562-15.101562h-63.96875v-60.976563zm-94.175782 141.453125h-293.445312v-293.445312h293.445312zm0 0" data-original="#000000" class="active-path" data-old_color="#000000" fill="#FFFFFF"/></g> </svg>
